# xmcd
#
# Track frame offsets: 
#        150
#        67841
#        80984
#        118405
#        155165
#        181243
#        222671
#        227268
#        233350
#        240421
#        249892
#        259495
#        263870
#        270426
#        292541
#
# Disc length: 4335 seconds
#
# Revision: 0
# Processed by: cddbd v1.5.2PL0 Copyright (c) Steve Scherf et al.
# Submitted via: ExactAudioCopy v0.99pb4
#
DISCID=cb10ed0f
DTITLE=Thomas Sanderling - Sergei Taneyev - Suite de concert - Cantata
DTITLE='John of Damascus'
DYEAR=2007
DGENRE=Classical
TTITLE0=Sergei Taneyev - John of Damascus op.1 - I. Adagio ma non trop
TTITLE0=po: Idu v nevedomïy mne put'
TTITLE1=Sergei Taneyev - John of Damascus op.1 - II. Andante sostenuto
TTITLE1=: No vechnïm snom poka ya splyu
TTITLE2=Sergei Taneyev - John of Damascus op.1 - III. Allegro: V tot d
TTITLE2=en', kogda truba
TTITLE3=Sergei Taneyev - Suite de concert op.28 - I. Prelude: Grave
TTITLE4=Sergei Taneyev - Suite de concert op.28 - II. Gavotte: Allegro
TTITLE4=moderato
TTITLE5=Sergei Taneyev - Suite de concert op.28 - III. Märchen: Andant
TTITLE5=ino
TTITLE6=Sergei Taneyev - Suite de concert op.28 - IV. Theme and Variat
TTITLE6=ions: Tema: Andantino
TTITLE7=Sergei Taneyev - Suite de concert op.28 - IV. Theme and Variat
TTITLE7=ions: Var. I: Allegro moderato
TTITLE8=Sergei Taneyev - Suite de concert op.28 - IV. Theme and Variat
TTITLE8=ions: Var. II: Allegro energico
TTITLE9=Sergei Taneyev - Suite de concert op.28 - IV. Theme and Variat
TTITLE9=ions: Var. III: Tempo di valse
TTITLE10=Sergei Taneyev - Suite de concert op.28 - IV. Theme and Varia
TTITLE10=tions: Var. IV: Fuga doppia: Allegro molto
TTITLE11=Sergei Taneyev - Suite de concert op.28 - IV. Theme and Varia
TTITLE11=tions: Var. V: Presto scherzando
TTITLE12=Sergei Taneyev - Suite de concert op.28 - IV. Theme and Varia
TTITLE12=tions: Var. VI: Tempo di Mazurka: Allegro con fuoco
TTITLE13=Sergei Taneyev - Suite de concert op.28 - IV. Theme and Varia
TTITLE13=tions: Variazione finale e coda
TTITLE14=Sergei Taneyev - Suite de concert op.28 - V. Tarantella: Pres
TTITLE14=to - Più presto
EXTD=
EXTT0=
EXTT1=
EXTT2=
EXTT3=
EXTT4=
EXTT5=
EXTT6=
EXTT7=
EXTT8=
EXTT9=
EXTT10=
EXTT11=
EXTT12=
EXTT13=
EXTT14=
PLAYORDER=
